<?xml version="1.0" encoding="iso-8859-1"?>
<!-- Generator: Adobe Illustrator 18.1.1, SVG Export Plug-In . SVG Version: 6.00 Build 0)  -->
<svg xmlns="http://www.w3.org/2000/svg" xmlns:xlink="http://www.w3.org/1999/xlink" version="1.1" id="Capa_1" x="0px" y="0px" viewBox="0 0 32 32" style="enable-background:new 0 0 32 32;" xml:space="preserve" width="512px" height="512px">
<g>
	<g id="fullscreen_x5F_exit_x5F_alt">
		<g>
			<polygon points="22.586,25.414 29.172,32 32,29.172 25.414,22.586 28,20 20,20 20,28    " fill="#FFFFFF"/>
			<polygon points="6.547,9.371 4,12 11.961,11.957 12,4 9.375,6.543 2.828,0 0,2.828    " fill="#FFFFFF"/>
			<polygon points="0,29.172 2.828,32 9.414,25.414 12,28 12,20 4,20 6.586,22.586    " fill="#FFFFFF"/>
			<polygon points="28.031,12 25.438,9.404 32,2.838 29.164,0 22.598,6.566 20,3.971 20,12    " fill="#FFFFFF"/>
		</g>
	</g>
</g>
<g>
</g>
<g>
</g>
<g>
</g>
<g>
</g>
<g>
</g>
<g>
</g>
<g>
</g>
<g>
</g>
<g>
</g>
<g>
</g>
<g>
</g>
<g>
</g>
<g>
</g>
<g>
</g>
<g>
</g>
</svg>
