<?xml version="1.0" encoding="iso-8859-1"?>
<!-- Generator: Adobe Illustrator 18.0.0, SVG Export Plug-In . SVG Version: 6.00 Build 0)  -->
<!DOCTYPE svg PUBLIC "-//W3C//DTD SVG 1.1//EN" "http://www.w3.org/Graphics/SVG/1.1/DTD/svg11.dtd">
<svg xmlns="http://www.w3.org/2000/svg" xmlns:xlink="http://www.w3.org/1999/xlink" version="1.1" id="Capa_1" x="0px" y="0px" viewBox="0 0 459.895 459.895" style="enable-background:new 0 0 459.895 459.895;" xml:space="preserve" width="512px" height="512px">
<g>
	<path d="M158.935,279.149l-54.396,54.395l-32.919-32.919c-1.804-1.805-4.521-2.345-6.88-1.371   c-2.358,0.981-3.893,3.279-3.893,5.832l-0.006,87.502c0,3.488,2.821,6.31,6.31,6.31l87.518,0.023c2.552,0,4.858-1.542,5.83-3.899   c0.981-2.358,0.441-5.068-1.361-6.881l-32.921-32.919l54.395-54.396c5.989-5.987,5.989-15.689,0-21.676   C174.624,273.16,164.923,273.16,158.935,279.149z" fill="#FFFFFF"/>
	<path d="M394.54,299.253c-2.357-0.974-5.074-0.434-6.878,1.371l-32.92,32.919l-54.395-54.395   c-5.988-5.989-15.69-5.989-21.678,0c-5.988,5.987-5.988,15.689,0,21.676l54.396,54.396l-32.92,32.919   c-1.805,1.813-2.343,4.522-1.363,6.881c0.973,2.357,3.279,3.899,5.831,3.899l87.518-0.023c3.488,0,6.31-2.821,6.31-6.31   l-0.007-87.502C398.433,302.533,396.898,300.235,394.54,299.253z" fill="#FFFFFF"/>
	<path d="M126.217,103.746l32.921-32.92c1.803-1.811,2.342-4.521,1.361-6.879   c-0.972-2.358-3.278-3.9-5.83-3.9L67.151,60.07c-3.489,0-6.31,2.82-6.31,6.31l0.006,87.502c0,2.553,1.535,4.851,3.893,5.832   c2.359,0.972,5.076,0.434,6.88-1.371l32.919-32.92l54.396,54.396c2.994,2.994,6.916,4.49,10.838,4.49   c3.923,0,7.844-1.496,10.838-4.49c5.989-5.988,5.989-15.69,0-21.678L126.217,103.746z" fill="#FFFFFF"/>
	<path d="M392.131,60.07l-87.518-0.023c-2.552,0-4.858,1.542-5.831,3.9c-0.98,2.358-0.442,5.068,1.363,6.879   l32.92,32.92l-54.396,54.395c-5.988,5.988-5.988,15.69,0,21.678c2.994,2.994,6.917,4.49,10.839,4.49   c3.921,0,7.845-1.496,10.838-4.49l54.395-54.396l32.92,32.92c1.805,1.805,4.521,2.343,6.878,1.371   c2.358-0.981,3.893-3.279,3.893-5.832l0.007-87.502C398.44,62.891,395.618,60.07,392.131,60.07z" fill="#FFFFFF"/>
	<path d="M423.845,0H36.05C16.138,0,0,16.138,0,36.05v387.795c0,19.912,16.138,36.05,36.049,36.05h387.795   c19.912,0,36.05-16.138,36.05-36.05V36.05C459.895,16.138,443.757,0,423.845,0z M429.235,423.845c0,2.973-2.418,5.39-5.39,5.39   H36.05c-2.972,0-5.39-2.417-5.39-5.39V36.05c0-2.972,2.418-5.39,5.39-5.39h387.795c2.973,0,5.39,2.418,5.39,5.39V423.845z" fill="#FFFFFF"/>
</g>
<g>
</g>
<g>
</g>
<g>
</g>
<g>
</g>
<g>
</g>
<g>
</g>
<g>
</g>
<g>
</g>
<g>
</g>
<g>
</g>
<g>
</g>
<g>
</g>
<g>
</g>
<g>
</g>
<g>
</g>
</svg>
